# xmcd
#
# Track frame offsets:
#	150
#	12402
#	29465
#	42546
#	55997
#	69015
#	80918
#	97385
#	110878
#	125721
#	137056
#	151754
#	166973
#	181922
#
# Disc length: 2611 seconds
# Revision: 0
# Processed by: cddbd v1.5.2PL0 Copyright (c) Steve Scherf et al.
# Submitted via: dBpowerAMP V12.0
#
DISCID=c80a310e
DTITLE=Russell Moore and IIIrd Tyme Out - Prime Tyme
DYEAR=2011
DGENRE=Country
TTITLE0=Old Kentucky Farmers
TTITLE1=Goodbye Old Missoula
TTITLE2=Pretty Little Girl From Galax
TTITLE3=If Your Heart Should Ever Roll This Way Again
TTITLE4=Moon Magic
TTITLE5=Gonna Lay Down My Old Guitar
TTITLE6=Whippoorwill
TTITLE7=Dusty
TTITLE8=Hooverville
TTITLE9=Big Muddy
TTITLE10=Carroll County Blues
TTITLE11=Little Magnolia
TTITLE12=Sugarfoot Rag
TTITLE13=What's The World Coming To
EXTD=
EXTT0=
EXTT1=
EXTT2=
EXTT3=
EXTT4=
EXTT5=
EXTT6=
EXTT7=
EXTT8=
EXTT9=
EXTT10=
EXTT11=
EXTT12=
EXTT13=
PLAYORDER=
